<svg width="206" height="93" viewBox="0 0 206 93" fill="none" xmlns="http://www.w3.org/2000/svg">
<g clip-path="url(#clip0_6_793)">
<path d="M20.7608 36.6977C20.7608 36.6977 33.1716 22.5344 19.2247 0.770508C19.2247 0.770508 24.8051 13.1848 18.1789 23.8584C14.2 30.2085 20.7608 36.6977 20.7608 36.6977ZM3.39871 85.2516C3.39871 85.2516 5.49033 83.993 5.84165 83.5108C5.84165 83.5108 5.28607 85.4641 4.30562 86.2977C4.37915 86.3713 3.75003 86.1588 3.39871 85.2516ZM29.2743 87.2049C29.9034 86.5102 30.3937 85.8074 30.8757 84.9738C29.9688 84.7613 28.7841 84.6959 27.5259 84.6959C23.694 84.8348 20.483 83.094 20.483 83.094C20.483 83.094 24.3884 87.2131 29.2743 87.2131V87.2049ZM28.4409 63.2753C28.4409 63.2753 24.8868 56.8597 32.6242 44.2983C32.6242 44.2983 26.5536 51.7599 23.2119 62.9238C23.2119 62.9238 25.5813 61.5263 28.4409 63.2753ZM3.61114 67.95C2.91665 67.95 2.214 63.1363 5.56386 56.6472C5.56386 56.6472 3.12091 62.9974 3.47224 66.9039C3.54577 67.6722 3.61114 67.95 3.61114 67.95ZM24.3231 7.46394C35.4103 33.2733 18.4649 38.6509 10.3027 55.2497C6.04591 64.8036 7.36952 72.8291 7.36952 72.8291C7.36952 72.8291 5.55569 73.9488 3.39054 73.8099C0.604434 73.5974 0.31847 70.6716 0.0406769 71.8566C-0.376013 78.4111 1.78097 80.3644 7.63914 81.0672C7.63914 81.0672 8.61958 88.8803 11.3322 91.7407C14.1918 92.8604 17.4028 93.0647 20.4013 92.37C16.9861 89.5832 15.6625 85.5295 15.6625 85.5295C14.2 81.8354 14.4042 79.2529 14.4042 79.2529C24.797 75.2728 30.3038 75.5588 33.3023 76.9482C33.4412 74.717 33.0899 72.4123 32.2565 70.2547C29.1845 67.1818 24.0943 67.4679 21.2347 67.8847C16.9125 68.514 13.4238 70.3283 13.4238 70.3283C13.4238 70.3283 11.1933 60.2841 23.4652 45.565C38.0412 28.1245 28.7678 12.7762 24.2986 7.47212L24.3231 7.46394Z" fill="#D93832"/>
<path d="M1.65041 80.577C1.65041 80.577 4.15872 82.4567 5.90718 81.9745C5.90718 81.9745 3.46423 84.696 3.12108 84.5571C3.12108 84.6307 2.07527 83.1596 1.65858 80.577H1.65041ZM6.81409 84.4836C7.30432 86.5758 7.721 89.0194 9.3224 91.177C9.3224 91.177 6.11144 89.7141 4.51004 87.1315L6.81409 84.4836ZM25.369 90.4823C25.8593 90.2044 26.3495 89.853 26.8315 89.5016C27.044 89.2891 27.2482 89.1502 27.3871 88.9459C27.3871 88.9459 21.1776 87.8997 15.8097 80.577C15.1152 79.6698 17.7624 88.668 22.8526 91.7409C23.7595 91.3241 24.5275 90.9727 25.3609 90.4823H25.369ZM2.27953 72.3471C3.25997 72.4861 4.09335 72.1346 4.09335 72.1346C2.41842 70.4592 2.0671 67.043 2.14063 64.3869C2.14063 64.3869 0.400338 67.4598 0.539234 70.5246C0.539234 70.5982 1.30725 72.2654 2.27953 72.3389V72.3471ZM9.60019 51.139C3.74203 59.5078 4.09335 67.4598 4.23225 69.2088C4.30578 69.977 4.58358 70.7453 5.00027 71.5789C5.41696 71.3664 5.41696 70.3203 5.41696 70.3203C4.78784 59.2299 10.5806 51.2779 15.8751 43.7427L15.8015 43.8162L9.59202 51.139H9.60019ZM31.9217 82.9471C32.5508 81.5496 32.9675 80.0131 33.1799 78.4848C28.6454 76.458 19.9276 78.3459 17.3457 79.392C17.3457 79.392 17.5582 79.8088 17.9748 79.9477C22.8607 83.225 28.9967 83.7153 31.9217 82.9471ZM30.9412 67.5988C30.6635 67.1084 30.3857 66.6916 30.1079 66.2748C30.1079 66.2748 29.8954 65.9234 29.7565 65.858C28.4329 64.8119 27.0358 64.3951 25.9246 64.2561C24.1108 63.9783 20.7609 64.9508 20.7609 64.9508C20.7609 64.9508 22.2234 57.6935 29.4052 47.3714C36.3092 37.4661 32.4773 26.8579 32.4773 26.8579C32.6162 33.2735 30.737 40.3183 24.9442 46.6031C15.5319 57.1377 16.0875 64.9508 16.2264 67.4598C23.2039 65.5066 28.0816 65.9234 30.9412 67.5988Z" fill="#282E65"/>
<path d="M190.934 81.6963C194.21 81.6963 196.931 81.1406 199.235 80.0209C201.539 78.9013 203.214 77.4384 204.325 75.4851C205.444 73.6054 206 71.505 206 69.2085C206 66.5605 205.371 64.3947 204.121 62.8583C202.863 61.3218 201.4 60.1368 199.66 59.4421C197.919 58.7474 195.754 57.9792 193.034 57.2763C190.386 56.647 188.499 55.9524 187.249 55.2495C185.991 54.5548 185.296 53.5741 185.296 52.1766C185.296 50.779 185.852 49.6676 186.971 48.8258C188.09 47.9921 189.757 47.5672 192.061 47.5672C195.338 47.5672 198.614 48.6133 201.898 50.7055L204.407 43.6606C202.805 42.4756 200.918 41.6338 198.687 41.0127C196.522 40.3834 194.292 40.1055 192.061 40.1055C188.785 40.1055 186.064 40.6612 183.834 41.7809C181.603 42.9006 179.928 44.3635 178.809 46.3167C177.69 48.1965 177.134 50.3622 177.134 52.6669C177.134 55.3149 177.763 57.4806 179.013 59.0825C180.271 60.6843 181.734 61.8694 183.474 62.5722C185.215 63.2669 187.38 64.0351 190.1 64.738C191.841 65.2284 193.238 65.5716 194.284 65.9966C195.329 66.4134 196.163 66.9038 196.792 67.5331C197.486 68.1624 197.772 68.9306 197.772 69.9031C197.772 71.2271 197.217 72.2732 196.097 73.0415C194.978 73.8097 193.238 74.2265 190.934 74.2265C188.842 74.2265 186.751 73.8097 184.659 73.0415C182.567 72.2732 180.753 71.3007 179.217 69.9685L176.431 77.0134C178.033 78.4109 180.124 79.5224 182.78 80.3642C185.427 81.1978 188.148 81.6882 190.942 81.6882L190.934 81.6963ZM162.199 81.0017H170.426V40.7511H162.199V81.0017ZM140.784 73.9568H131.233V63.9779H140.857C145.253 63.9779 147.41 65.6533 147.41 69.0041C147.41 70.6795 146.855 71.9381 145.735 72.6982C144.55 73.5318 142.949 73.9568 140.784 73.9568ZM139.387 47.796C141.413 47.796 142.941 48.2128 143.987 48.981C145.033 49.7493 145.523 50.9343 145.523 52.5362C145.523 54.138 145.033 55.2577 143.987 56.0913C142.941 56.8595 141.405 57.2763 139.387 57.2763H131.159V47.7878H139.387V47.796ZM149.15 60.0714C150.686 59.2378 151.798 57.9792 152.639 56.4427C153.473 54.9062 153.897 53.1655 153.897 51.2122C153.897 48.0003 152.713 45.4259 150.409 43.538C148.105 41.6583 144.763 40.7511 140.433 40.7511H122.997V81.0017H141.413C146.087 81.0017 149.575 80.0209 152.01 78.1412C154.453 76.2615 155.638 73.54 155.638 69.9767C155.638 67.4677 155.082 65.3755 153.897 63.7001C152.713 62.0247 151.111 60.7661 149.159 60.0714H149.15ZM98.9352 73.7443C96.8436 73.7443 94.9562 73.1886 93.216 72.1425C91.541 71.0228 90.2174 69.5599 89.237 67.6066C88.2565 65.6533 87.7745 63.4222 87.7745 60.9132C87.7745 58.4042 88.2647 56.2384 89.237 54.2197C90.2174 52.2665 91.541 50.73 93.216 49.6839C94.8909 48.5642 96.7701 48.082 98.9352 48.082C101.1 48.082 102.914 48.6378 104.654 49.6839C106.329 50.8036 107.653 52.2665 108.633 54.2197C109.614 56.173 110.096 58.4042 110.096 60.9132C110.096 63.4222 109.606 65.588 108.633 67.6066C107.653 69.5599 106.329 71.0964 104.654 72.1425C102.914 73.1886 101.027 73.7443 98.9352 73.7443ZM98.9352 81.6963C102.628 81.6963 105.913 80.7892 108.911 78.9748C111.844 77.1605 114.214 74.7169 115.889 71.5132C117.564 68.3748 118.397 64.8197 118.397 60.8396C118.397 56.8595 117.564 53.378 115.889 50.1661C114.214 47.0278 111.91 44.5188 108.911 42.7044C105.978 40.8901 102.636 39.9829 98.9352 39.9829C95.234 39.9829 91.9577 40.8901 88.9592 42.7044C85.9606 44.5188 83.6566 46.9624 81.9817 50.1661C80.3067 53.3044 79.4734 56.8595 79.4734 60.8396C79.4734 64.8197 80.3067 68.3013 81.9817 71.5132C83.6566 74.6515 85.9606 77.1605 88.9592 78.9748C91.8923 80.7892 95.234 81.6963 98.9352 81.6963ZM62.3891 81.6963C65.4611 81.6963 68.2472 81.067 70.7556 79.882C73.2639 78.6234 75.3555 76.8826 77.0304 74.5125L71.7278 69.0041C69.3584 72.216 66.3599 73.8179 62.7976 73.8179C60.5671 73.8179 58.6144 73.2621 56.9394 72.216C55.1991 71.0963 53.8674 69.6334 52.8951 67.6802C51.9146 65.7269 51.4326 63.4957 51.4326 60.9867C51.4326 58.4777 51.9228 56.3119 52.8951 54.2933C53.8755 52.34 55.1991 50.8036 56.9394 49.7575C58.6797 48.6378 60.6324 48.1556 62.7976 48.1556C66.3517 48.1556 69.3502 49.6921 71.7278 52.8304L77.0304 47.322C75.3555 45.0173 73.2639 43.2765 70.7556 42.0179C68.2472 40.7593 65.453 40.2036 62.3891 40.2036C58.7614 40.2036 55.4116 41.1107 52.4866 42.8515C49.5534 44.5923 47.2575 47.1095 45.5826 50.2478C43.9077 53.3861 43.0743 57.0148 43.0743 60.9949C43.0743 64.975 43.9077 68.5955 45.5826 71.742C47.2575 74.8803 49.5616 77.3893 52.4866 79.1383C55.4851 80.8137 58.835 81.7209 62.3891 81.7209V81.6963Z" fill="#282E65"/>
</g>
<defs>
<clipPath id="clip0_6_793">
<rect width="206" height="92" fill="white" transform="translate(0 0.770508)"/>
</clipPath>
</defs>
</svg>
